<?xml version="1.0" standalone="no"?>
<!DOCTYPE svg PUBLIC "-//W3C//DTD SVG 20010904//EN"
 "http://www.w3.org/TR/2001/REC-SVG-20010904/DTD/svg10.dtd">
<svg version="1.0" xmlns="http://www.w3.org/2000/svg"
 width="512.000000pt" height="512.000000pt" viewBox="0 0 512.000000 512.000000"
 preserveAspectRatio="xMidYMid meet">

<g transform="translate(0.000000,512.000000) scale(0.100000,-0.100000)"
fill="#000000" stroke="none">
<path d="M2560 4974 l0 -149 51 -12 c203 -49 410 -411 543 -955 36 -143 100
-497 92 -505 -2 -2 -66 36 -142 85 -240 153 -527 322 -547 322 -4 0 -7 -75 -7
-167 l0 -168 153 -90 c165 -97 555 -353 574 -376 8 -10 14 -91 19 -249 7 -244
-4 -521 -32 -795 -14 -140 -70 -511 -80 -526 -6 -11 -223 94 -437 210 -102 56
-188 101 -191 101 -3 0 -6 -76 -6 -170 l0 -169 269 -135 c148 -73 274 -135
280 -137 8 -3 2 -33 -18 -91 l-29 -87 41 -6 c63 -11 140 -42 186 -75 22 -17
43 -30 45 -30 2 0 17 37 32 82 14 46 28 84 29 85 1 2 58 -18 126 -43 247 -91
541 -166 764 -195 116 -15 369 -6 450 15 278 75 423 281 387 550 -60 454 -580
1087 -1423 1734 l-114 88 -7 59 c-57 476 -107 737 -195 1010 -109 339 -240
582 -398 740 -117 116 -225 174 -357 190 l-58 7 0 -148z m1118 -2316 c522
-424 901 -842 1062 -1173 124 -253 105 -391 -58 -442 -206 -63 -544 -17 -992
136 -204 69 -231 81 -226 99 12 40 56 287 70 392 39 281 48 408 53 723 3 180
8 327 10 327 3 0 39 -28 81 -62z"/>
<path d="M2588 303 l-28 -4 0 -150 c0 -170 -8 -157 95 -138 61 11 177 59 189
77 3 5 -8 16 -26 23 -42 17 -131 106 -157 157 -12 23 -27 41 -34 41 -6 -1 -24
-4 -39 -6z"/>
</g>
</svg>
